<?xml version="1.0" encoding="utf-8"?>
<!-- Generator: Adobe Illustrator 24.1.3, SVG Export Plug-In . SVG Version: 6.00 Build 0)  -->
<svg version="1.1" xmlns="http://www.w3.org/2000/svg" xmlns:xlink="http://www.w3.org/1999/xlink" x="0px" y="0px"
	 viewBox="0 0 1275.59 1275.59" style="enable-background:new 0 0 1275.59 1275.59;" xml:space="preserve">
<style type="text/css">
	.st0{fill:#FFFFFF;stroke:#231F20;stroke-width:4;stroke-miterlimit:10;}
	.st1{fill:none;}
</style>
<g id="Layer_1">
</g>
<g id="Layer_2">
	<path class="st0" d="M598.37,885.63c-13.44,6.14-16.17,4.75-48.38,17.82c-35.88,14.57-42.83,20.48-56.45,18.25
		c-18.99-3.11-36.05-19.62-42.86-37.35c-10.16-26.42,8.86-38.83-1.7-65.78c-8.18-20.89-21.85-19.15-28.01-40.74
		c-6.21-21.77,5.9-29.71-0.85-45.84c-10.2-24.37-45.63-17.79-48.38-36.07c-4.28-28.43,51.09-46.24,52.63-91.67
		c0.5-14.83-5.41-12.59-11.03-43.71c-4.06-22.48-8.86-49.05,0-78.51c8.06-26.78,12.73-43.75,27.2-59.42
		c5.58-6.05,22.07-23.21,51.35-41.17c58.95-36.15,116.3-42.72,131.14-44.14c27.74-2.65,74.4-6.55,128.17,15.28
		c19.4,7.87,72.89,30.48,109.5,89.12c10.81,17.32,49.91,67.83,43.25,129.87c-1.44,13.45-10.88,38.86-29.71,89.13
		c-36.53,97.54-40.04,97.21-39.05,112.89c2.47,39.03,25.18,56.49,29.71,116.29c0.79,10.39,1.36,26.57-8.91,37.35
		c-9.58,10.05-23.92,10.5-38.2,10.61c-51.46,0.41-86.83-3.59-115.01-6.37c-35.93-3.54-49.57-4.06-66.63-14.85
		c-3.39-2.15-29.61-18.73-26.74-34.38c2.38-12.95,22.23-12.05,44.14-30.13c26.16-21.59,34.19-52.86,31.83-54.32
		C681.92,795.64,657.97,858.41,598.37,885.63z"/>
	<g>
		<g>
			<path d="M537.86,500.01v-9.85l73.71-38.89v10.19l-64.2,33.46l64.2,33.29v10.7L537.86,500.01z"/>
			<path d="M637.22,549.27h-9.34l45.35-124.5h9.68L637.22,549.27z"/>
			<path d="M772.92,490.16v9.85l-73.71,38.9v-10.36l64.37-33.29l-64.37-33.29v-10.7L772.92,490.16z"/>
		</g>
	</g>
	<rect x="987.39" y="445.91" class="st1" width="5.47" height="1.17"/>
	<rect x="819.97" y="1166.12" class="st1" width="12.6" height="7.56"/>
</g>
</svg>
