<?xml version="1.0" encoding="utf-8"?>
<!-- Generator: Adobe Illustrator 24.1.3, SVG Export Plug-In . SVG Version: 6.00 Build 0)  -->
<svg version="1.1" xmlns="http://www.w3.org/2000/svg" xmlns:xlink="http://www.w3.org/1999/xlink" x="0px" y="0px"
	 viewBox="0 0 1275.59 1275.59" style="enable-background:new 0 0 1275.59 1275.59;" xml:space="preserve">
<style type="text/css">
	.st0{fill:#FFFFFF;stroke:#231F20;stroke-width:4;stroke-miterlimit:10;}
	.st1{font-family:'LucidaSans';}
	.st2{font-size:82.5945px;}
	.st3{fill:none;}
</style>
<g id="Layer_1">
</g>
<g id="Layer_2">
	<path class="st0" d="M574.39,666.95c-5.45,2.49-6.56,1.93-19.61,7.22c-14.54,5.9-17.36,8.3-22.88,7.4
		c-7.69-1.26-14.61-7.95-17.37-15.14c-4.12-10.71,3.59-15.74-0.69-26.66c-3.32-8.46-8.85-7.76-11.35-16.51
		c-2.52-8.82,2.39-12.04-0.34-18.58c-4.13-9.87-18.49-7.21-19.61-14.62c-1.73-11.52,20.71-18.74,21.33-37.15
		c0.2-6.01-2.19-5.1-4.47-17.72c-1.65-9.11-3.59-19.88,0-31.82c3.26-10.85,9.62-17.73,15.48-24.08c2.26-2.45,8.94-9.41,20.81-16.68
		c23.89-14.65,47.13-17.31,53.15-17.89c11.24-1.07,30.15-2.65,51.94,6.19c7.86,3.19,29.54,12.35,44.37,36.12
		c4.38,7.02,15.77,27.49,13.07,52.63c-0.58,5.45-4.41,15.75-12.04,36.12c-14.8,39.53-16.23,39.4-15.82,45.75
		c1,15.82,10.21,22.89,12.04,47.13c0.32,4.21,0.55,10.77-3.61,15.14c-3.88,4.07-9.69,4.25-15.48,4.3
		c-20.86,0.17-35.19-1.45-46.61-2.58c-14.56-1.44-20.09-1.65-27-6.02c-1.38-0.87-12-7.59-10.84-13.93
		c0.96-5.25,9.01-4.88,17.89-12.21c10.6-8.75,13.86-21.42,12.9-22.02C608.24,630.48,598.54,655.91,574.39,666.95z"/>
	<text transform="matrix(1 0 0 1 165.4253 610.8291)" class="st1 st2">SIMOS</text>
	<text transform="matrix(1 0 0 1 772.1621 610.8291)" class="st1 st2">IMBRAEM</text>
	<g>
		<g>
			<path d="M549.86,510.67v-3.99l29.87-15.76v4.13l-26.02,13.56l26.02,13.49v4.34L549.86,510.67z"/>
			<path d="M590.13,530.63h-3.79l18.38-50.45h3.92L590.13,530.63z"/>
			<path d="M645.12,506.68v3.99l-29.87,15.76v-4.2l26.09-13.49l-26.09-13.49v-4.34L645.12,506.68z"/>
		</g>
	</g>
	<rect x="987.39" y="417.91" class="st3" width="5.47" height="1.17"/>
	<rect x="664.19" y="780.62" class="st3" width="5.11" height="3.06"/>
</g>
</svg>
